<svg id="Layer_1" data-name="Layer 1" xmlns="http://www.w3.org/2000/svg" viewBox="0 0 666.71 543.74"><line x1="399.49" y1="421.11" x2="267.23" y2="421.11" style="fill:none"/><path d="M641,316.41l-14,5.64-4.26,1.71-11.88,4.78-4.25,1.71-10.74,4.32-4.26,1.71L577.31,342V568.81h46.35V522.35L627,521V493.71l9.74-3.92V517.1l1.21-.49,4.26-1.72,10.74-4.32,4.26-1.71,11.87-4.78,4.25-1.71L686.81,497V342ZM591.6,565.34h-10V546.53l10-4Zm0-26.7-10,4V512l10-4Zm0-34.56-10,4V477.43l10-4Zm0-34.55-10,4V442.88l10-4Zm0-34.55-10,4V408.32l10-4Zm0-34.55-10,4v-30.7l10-4Zm0-34.56-10,4V344.18l10-4Zm15,199.47H595.86V540.79l10.74-4.32Zm0-32.73-10.74,4.32V506.24l10.74-4.32Zm0-34.56-10.74,4.32V471.68l10.74-4.32Zm0-34.55-10.74,4.32v-30.7l10.74-4.32Zm0-34.56-10.74,4.33v-30.7l10.74-4.32Zm0-34.55-10.74,4.32V368l10.74-4.32Zm0-34.55-10.74,4.32V338.43l10.74-4.32Zm16.13,205.5H610.85V534.76L622.73,530Zm0-39.22-11.88,4.78V500.2l11.88-4.78Zm0-34.55-11.88,4.77V465.65l11.88-4.78Zm0-34.56-11.88,4.77V431.09l11.88-4.77Zm0-34.56-11.88,4.78V396.54l11.88-4.78Zm0-34.55-11.88,4.78V362l11.88-4.77Zm0-34.55-11.88,4.78V332.4l11.88-4.78Zm14,132.58L627,489.85V459.16l9.74-3.92Zm0-34.55L627,455.3V424.61l9.74-3.92Zm0-34.56L627,420.74V390.05l9.74-3.92Zm0-34.55L627,386.19V355.5l9.74-3.92Zm0-34.56L627,351.63V325.91l9.74-3.92Z" transform="translate(-266.64 -316.41)" style="fill:#800020"/><path d="M581.29,439.12l-14,5.63L563,446.46l-11.87,4.77-4.25,1.71-10.75,4.32L531.91,459l-14.29,5.75V625.19l4.25,1.23V600.13l10-4v30.68l-3.68,1.48,7.93,2.3v-1.63l10.75-4.32v9.06l4.25,1.24v-12L563,618.12v20.23l4.26,1.24V616.41l9.74-3.92V638.1L598.52,624V602.71l22.26,6.66,2.88-1.89,3.46-2.27V464.73ZM531.91,592.23l-10,4v-30.7l10-4Zm0-34.56-10,4V531l10-4Zm0-34.55-10,4v-30.7l10-4Zm0-34.56-10,4V466.88l10-4Zm15,132.19-10.75,4.32V594.38l10.75-4.33Zm0-34.55-10.75,4.32v-30.7l10.75-4.32Zm0-34.56L536.16,556V525.27L546.91,521Zm0-34.56-10.75,4.32V490.71l10.75-4.32Zm0-34.55-10.75,4.32V461.13l10.75-4.32ZM563,614.27,551.16,619v-30.7L563,583.57Zm0-34.57-11.87,4.78V553.79L563,549Zm0-34.55-11.87,4.78V519.24L563,514.46Zm0-34.55-11.87,4.77V484.68L563,479.9ZM563,476l-11.87,4.79V455.1L563,450.32Zm14,132.59-9.74,3.91V581.86l9.74-3.92Zm0-34.56L567.29,578V547.3l9.74-3.92Zm0-34.56-9.74,3.93v-30.7l9.74-3.92ZM577,505l-9.74,3.93v-30.7l9.74-3.92Zm0-34.55-9.74,3.92V448.6l9.74-3.92Z" transform="translate(-266.64 -316.41)" style="fill:#fff"/><path d="M687.33,496.74l-14,5.63-4.25,1.71-11.87,4.78-4.26,1.71-10.74,4.32-4.26,1.72L627.12,521l-3.46,1.39v85.13l3.46-2.27.79-.52V588.64l10-4v13.5l4.26-2.79V582.89l10.74-4.32v9.69l4.26-2.8v-8.6l7.09-2.85,4.78-1.92v10l4.25,7.2V570.37l9.75-3.92v30.69l-4.14,1.67,1.84,3.12,2.3-.92v4.82l22.18,37.57,27.9-18V522.35Zm-49.39,84-10,4V554.09l10-4Zm0-34.56-10,4V524.51l10-4Zm15,28.52L642.2,579V548.34l5.6-2.26,5.14-2.06Zm0-34.55L646,543l-3.76,1.51V518.75l10.74-4.32Zm4.26-27.44L669.07,508v25.72l-11.87,4.78Zm5.24,58.17L657.2,573V542.3l11.87-4.77v30.69Zm20.63-8.3-9.75,3.92V535.82l9.75-3.92Zm0-34.55L673.32,532V506.23l9.75-3.92Z" transform="translate(-266.64 -316.41)" style="fill:#fff"/><polygon points="292.47 421.11 235.69 421.11 158.15 289.07 392.16 356.9 292.47 421.11" style="fill:#fff"/><polygon points="508.51 289.29 431.19 421.11 306.36 421.11 508.51 289.29" style="fill:#fff"/><polygon points="432.15 330.82 425.79 334.98 397.59 287.22 365.31 341.91 360.47 340.51 394.76 282.44 399.17 274.96 402 279.74 432.15 330.82" style="fill:#e6e6e6"/><path d="M622.31,617.54l-6.78,16.26V612.93l-11.27-3.46v19.85L582,643.84l41.14,11.93L660,593Zm-6.78,16.26Z" transform="translate(-266.64 -316.41)" style="fill:#fff"/><rect x="501.71" y="387.86" width="14.85" height="14.85" style="fill:#fff"/><rect x="519.57" y="387.86" width="14.85" height="14.85" style="fill:#fff"/><rect x="519.57" y="405.72" width="14.85" height="14.85" style="fill:#fff"/><rect x="501.71" y="405.72" width="14.85" height="14.85" style="fill:#fff"/><rect x="131.33" y="387.86" width="14.85" height="14.85" style="fill:#fff"/><rect x="149.19" y="387.86" width="14.85" height="14.85" style="fill:#fff"/><rect x="149.19" y="405.72" width="14.85" height="14.85" style="fill:#fff"/><rect x="131.33" y="405.72" width="14.85" height="14.85" style="fill:#fff"/><rect x="385.87" y="321.23" width="10.11" height="10.11" style="fill:#fff"/><rect x="398.02" y="321.23" width="10.11" height="10.11" style="fill:#fff"/><rect x="398.02" y="333.38" width="10.11" height="10.11" style="fill:#fff"/><rect x="385.87" y="333.38" width="10.11" height="10.11" style="fill:#fff"/><polyline points="380.99 364.09 386.3 360.68 390.55 357.94" style="fill:none"/><polygon points="155.91 300.18 147.69 286.26 142.43 295.17 75.89 407.88 0 421.11 68.08 421.11 84.51 421.11 150.65 309.09 216.77 421.11 227.3 421.11 155.91 300.18" style="fill:#800020"/><polygon points="591.3 407.97 524.71 295.17 519.45 286.26 511.24 300.18 439.85 421.11 450.37 421.11 516.5 309.09 581.9 419.87 582.2 421.11 582.63 421.11 599.06 421.11 666.71 421.11 591.3 407.97" style="fill:#800020"/><text transform="translate(0 494.56)" style="font-size:88px;fill:#fff;font-family:Helvetica-Bold, Helvetica;font-weight:700;letter-spacing:0.031999067826704544em">ROBERT </text><text transform="translate(406.1 494.56)" style="font-size:88px;fill:#800020;font-family:Helvetica-Bold, Helvetica;font-weight:700;letter-spacing:0.031999067826704544em">BUSH</text><text transform="translate(241.02 530.28)" style="font-size:28px;fill:#800020;font-family:Helvetica">REA<tspan x="57.57" y="0" style="letter-spacing:-0.03662109375em">L</tspan><tspan x="72.12" y="0" xml:space="preserve"> ES</tspan><tspan x="117.25" y="0" style="letter-spacing:-0.07373046875em">TA</tspan><tspan x="148.9" y="0">TE</tspan></text></svg>