<svg id="Layer_1" data-name="Layer 1" xmlns="http://www.w3.org/2000/svg" viewBox="0 0 51.5 42"><line x1="30.86" y1="32.53" x2="20.64" y2="32.53" style="fill:none"/><path d="M591.18,607.33h-.49v-.18h1.2v.18h-.5v1.44h-.21Z" transform="translate(-574.25 -567.29)" style="fill:#e6e6e6"/><path d="M593.35,608.26l-.17.51H593l.55-1.62h.25l.55,1.62h-.22l-.17-.51Zm.53-.16-.15-.47c0-.11-.06-.2-.09-.3h0c0,.1,0,.2-.09.3l-.15.47Z" transform="translate(-574.25 -567.29)" style="fill:#e6e6e6"/><path d="M597,608.7a1.66,1.66,0,0,1-.5.09.85.85,0,0,1-.61-.22.86.86,0,0,1,.65-1.44.91.91,0,0,1,.41.08l0,.17a.85.85,0,0,0-.36-.07.6.6,0,0,0-.65.65.59.59,0,0,0,.62.65.78.78,0,0,0,.28,0v-.48h-.33v-.17H597Z" transform="translate(-574.25 -567.29)" style="fill:#e6e6e6"/><path d="M600.2,607.15h.21v1.44h.7v.18h-.91Z" transform="translate(-574.25 -567.29)" style="fill:#e6e6e6"/><path d="M602.75,607.15v1.62h-.21v-1.62Z" transform="translate(-574.25 -567.29)" style="fill:#e6e6e6"/><path d="M604.32,608.77v-1.62h.23l.52.82a3.55,3.55,0,0,1,.29.53h0c0-.21,0-.41,0-.66v-.68h.2v1.62h-.21l-.52-.82a6,6,0,0,1-.3-.54h0c0,.2,0,.4,0,.67v.69Z" transform="translate(-574.25 -567.29)" style="fill:#e6e6e6"/><path d="M608,608h-.63v.58h.7v.18h-.91v-1.62H608v.17h-.67v.52H608Z" transform="translate(-574.25 -567.29)" style="fill:#e6e6e6"/><path d="M603.17,567.29l-1.09.43-.32.13-.92.37-.33.13-.83.34-.33.13-1.1.44v17.52h3.58v-3.59l.25-.1V581l.76-.3v2.11l.09,0,.33-.13.83-.34.33-.13.92-.37.32-.13,1.05-.42v-12Zm-3.82,19.22h-.77v-1.45l.77-.31Zm0-2.06-.77.31v-2.37l.77-.31Zm0-2.67-.77.31v-2.37l.77-.31Zm0-2.67-.77.31v-2.37l.77-.31Zm0-2.67-.77.32v-2.38l.77-.31Zm0-2.66-.77.31v-2.37l.77-.32Zm0-2.67-.77.31v-2l.77-.31Zm1.16,15.4h-.83v-1.89l.83-.34Zm0-2.52-.83.33V582l.83-.34Zm0-2.67-.83.33v-2.37l.83-.33Zm0-2.67-.83.33v-2.37l.83-.33Zm0-2.67-.83.33v-2.37l.83-.33Zm0-2.67-.83.33v-2.37l.83-.33Zm0-2.67-.83.33v-2l.83-.34Zm1.25,15.87h-.92v-2.36l.92-.37Zm0-3-.92.37v-2.37l.92-.37Zm0-2.66-.92.36v-2.37l.92-.37Zm0-2.67-.92.36v-2.37l.92-.36Zm0-2.67-.92.37v-2.37l.92-.37Zm0-2.67-.92.37v-2.37l.92-.37Zm0-2.67-.92.37v-2l.92-.37Zm1.08,10.24-.76.3v-2.37l.76-.3Zm0-2.67-.76.3v-2.37l.76-.3Zm0-2.67-.76.3V573l.76-.3Zm0-2.67-.76.31V570.3l.76-.3Zm0-2.67-.76.31v-2l.76-.3Z" transform="translate(-574.25 -567.29)" style="fill:#707070"/><path d="M598.55,576.76l-1.08.44-.33.13-.91.37-.33.13-.83.34-.33.13-1.1.44v12.4l.33.09v-2l.77-.31v2.37l-.28.11.61.18v-.12l.83-.34v.7l.33.1V591l.91-.37v1.56l.33.1v-1.79l.76-.3v2l1.66-1.09V589.4l1.72.51.22-.14.26-.18V578.74Zm-3.81,11.83-.77.31v-2.37l.77-.31Zm0-2.67-.77.31v-2.37l.77-.31Zm0-2.67-.77.31v-2.37l.77-.31Zm0-2.67-.77.31v-2l.77-.31Zm1.16,10.21-.83.34v-2.37l.83-.34Zm0-2.67-.83.34v-2.37l.83-.34Zm0-2.66-.83.33v-2.37l.83-.34Zm0-2.67-.83.33v-2.37l.83-.33Zm0-2.67-.83.33v-2l.83-.33Zm1.24,10.17-.91.37v-2.37l.91-.37Zm0-2.67-.91.37v-2.37l.91-.37Zm0-2.67-.91.37V583l.91-.37Zm0-2.66-.91.36v-2.37l.91-.37Zm0-2.67-.91.37v-2l.91-.37Zm1.09,10.24-.76.3v-2.37l.76-.3Zm0-2.67-.76.3v-2.37l.76-.3Zm0-2.67-.76.3v-2.37l.76-.3Zm0-2.67-.76.3v-2.37l.76-.3Zm0-2.67-.76.3v-2l.76-.31Z" transform="translate(-574.25 -567.29)" style="fill:#f59246"/><path d="M606.75,581.21l-1.09.44-.32.13-.92.37-.33.13-.83.34-.33.13-.84.34-.26.1v6.58l.26-.18.07,0v-1.24l.77-.31v1l.33-.21v-1l.83-.33v.74l.33-.21v-.67l.55-.22.37-.15v.78l.32.56V586.9l.76-.3V589l-.32.13.14.24.18-.07v.37l1.71,2.9,2.16-1.38v-8Zm-3.82,6.49-.77.32v-2.38l.77-.31Zm0-2.67-.77.32v-2l.77-.31Zm1.16,2.21-.83.33V585.2l.43-.17.4-.16Zm0-2.67-.54.22-.29.11v-2l.83-.34Zm.33-2.12.92-.37v2l-.92.37Zm.4,4.49-.4.17v-2.38l.92-.36v2.37Zm1.6-.64-.76.3v-2.37l.76-.3Zm0-2.67-.76.3v-2l.76-.3Z" transform="translate(-574.25 -567.29)" style="fill:#f59246"/><polygon points="22.59 32.53 18.2 32.53 12.22 22.33 30.29 27.57 22.59 32.53" style="fill:#f59246"/><polygon points="39.28 22.34 33.31 32.53 23.66 32.53 39.28 22.34" style="fill:#f59246"/><polygon points="33.38 25.55 32.89 25.87 30.71 22.19 28.22 26.41 27.84 26.3 30.49 21.82 30.83 21.24 31.05 21.61 33.38 25.55" style="fill:#e6e6e6"/><path d="M601.72,590.55l-.52,1.25v-1.61l-.87-.27v1.54l-1.72,1.12,3.18.92,2.84-4.85Zm-.52,1.25Z" transform="translate(-574.25 -567.29)" style="fill:#f59246"/><rect x="38.75" y="29.96" width="1.15" height="1.15" style="fill:#f59246"/><rect x="40.13" y="29.96" width="1.15" height="1.15" style="fill:#f59246"/><rect x="40.13" y="31.34" width="1.15" height="1.15" style="fill:#f59246"/><rect x="38.75" y="31.34" width="1.15" height="1.15" style="fill:#f59246"/><rect x="10.14" y="29.96" width="1.15" height="1.15" style="fill:#f59246"/><rect x="11.52" y="29.96" width="1.15" height="1.15" style="fill:#f59246"/><rect x="11.52" y="31.34" width="1.15" height="1.15" style="fill:#f59246"/><rect x="10.14" y="31.34" width="1.15" height="1.15" style="fill:#f59246"/><rect x="29.81" y="24.81" width="0.78" height="0.78" style="fill:#f59246"/><rect x="30.74" y="24.81" width="0.78" height="0.78" style="fill:#f59246"/><rect x="30.74" y="25.75" width="0.78" height="0.78" style="fill:#f59246"/><rect x="29.81" y="25.75" width="0.78" height="0.78" style="fill:#f59246"/><polyline points="29.43 28.12 29.84 27.86 30.17 27.65" style="fill:none"/><polygon points="12.04 23.19 11.41 22.11 11 22.8 5.86 31.51 0 32.53 5.26 32.53 6.53 32.53 11.64 23.88 16.74 32.53 17.56 32.53 12.04 23.19" style="fill:#707070"/><polygon points="45.67 31.51 40.53 22.8 40.12 22.11 39.49 23.19 33.98 32.53 34.79 32.53 39.9 23.88 44.95 32.43 44.97 32.53 45 32.53 46.27 32.53 51.5 32.53 45.67 31.51" style="fill:#707070"/><text transform="translate(0 38.2)" style="font-size:6.797338962554932px;fill:#f59246;font-family:Helvetica-Bold, Helvetica;font-weight:700;letter-spacing:0.032038042931162726em">ROBERT </text><text transform="translate(31.37 38.2)" style="font-size:6.797338962554932px;fill:#707070;font-family:Helvetica-Bold, Helvetica;font-weight:700;letter-spacing:0.031894374577211324em">BUSH</text><text transform="translate(18.62 40.96)" style="font-size:2.1627895832061768px;fill:#707070;font-family:Helvetica">REA<tspan x="4.45" y="0" style="letter-spacing:-0.03634809500675585em">L</tspan><tspan x="5.57" y="0" xml:space="preserve" style="letter-spacing:-0.00022576456525935312em"> ES</tspan><tspan x="9.06" y="0" style="letter-spacing:-0.07405077740506782em">TA</tspan><tspan x="11.5" y="0">TE</tspan></text></svg>